<mxfile host="Electron" modified="2024-05-31T13:09:11.745Z" agent="Mozilla/5.0 (Windows NT 10.0; Win64; x64) AppleWebKit/537.36 (KHTML, like Gecko) draw.io/24.0.4 Chrome/120.0.6099.109 Electron/28.1.0 Safari/537.36" etag="zEGHA_EYllT8H35UEMPU" version="24.0.4" type="device">
  <diagram name="Seite-1" id="GNW0xODhde3MRYlcsHYW">
    <mxGraphModel dx="1195" dy="1907" grid="1" gridSize="10" guides="1" tooltips="1" connect="1" arrows="1" fold="1" page="1" pageScale="1" pageWidth="827" pageHeight="1169" math="0" shadow="0">
      <root>
        <mxCell id="0" />
        <mxCell id="1" parent="0" />
        <mxCell id="Azfwn87bImU3TrEsXpeB-2" value="Kubernetes Cluster" style="rounded=0;whiteSpace=wrap;html=1;align=left;verticalAlign=bottom;fontStyle=1;fontSize=20;spacingLeft=2;strokeColor=#666666;fillColor=#f5f5f5;fontColor=#333333;" vertex="1" parent="1">
          <mxGeometry x="40" y="40" width="560" height="560" as="geometry" />
        </mxCell>
        <mxCell id="2GmPpYBT71CByKpXUauW-2" value="" style="group;spacingLeft=4;" parent="1" vertex="1" connectable="0">
          <mxGeometry x="40" y="-640" width="140" height="150" as="geometry" />
        </mxCell>
        <mxCell id="aBV4YAuCvy3yFw8Tclj8-3" value="" style="rounded=0;whiteSpace=wrap;html=1;fillColor=#FFF2CC;strokeColor=none;shadow=1;textShadow=1;align=center;verticalAlign=middle;fontStyle=1;fontSize=20;fontColor=#333333;gradientColor=#FFE599;shadowBlur=2;shadowOffsetX=0;shadowOpacity=50;shadowOffsetY=0;" parent="2GmPpYBT71CByKpXUauW-2" vertex="1">
          <mxGeometry width="120" height="130" as="geometry" />
        </mxCell>
        <mxCell id="aBV4YAuCvy3yFw8Tclj8-4" value="POD" style="text;html=1;align=left;verticalAlign=top;whiteSpace=wrap;rounded=0;fontStyle=1;fontSize=20;spacing=0;spacingLeft=2;" parent="2GmPpYBT71CByKpXUauW-2" vertex="1">
          <mxGeometry width="50" height="30" as="geometry" />
        </mxCell>
        <mxCell id="aBV4YAuCvy3yFw8Tclj8-5" value="nginx" style="html=1;whiteSpace=wrap;shape=isoCube2;backgroundOutline=1;isoAngle=15;gradientColor=none;strokeColor=#E6E6E6;fontSize=8;verticalAlign=top;fontStyle=0;fillColor=#FFCE9F;" parent="2GmPpYBT71CByKpXUauW-2" vertex="1">
          <mxGeometry x="40" y="30" width="40" height="40" as="geometry" />
        </mxCell>
        <mxCell id="aBV4YAuCvy3yFw8Tclj8-6" value="netshoot" style="html=1;whiteSpace=wrap;shape=isoCube2;backgroundOutline=1;isoAngle=15;strokeColor=#E6E6E6;fontSize=8;verticalAlign=top;fillColor=#FFCE9F;" parent="2GmPpYBT71CByKpXUauW-2" vertex="1">
          <mxGeometry x="40" y="70" width="40" height="40" as="geometry" />
        </mxCell>
        <mxCell id="aBV4YAuCvy3yFw8Tclj8-7" value="255.255.255.255" style="rounded=0;whiteSpace=wrap;html=1;fontSize=12;strokeColor=none;fillColor=#D4E1F5;fontColor=#000000;" parent="2GmPpYBT71CByKpXUauW-2" vertex="1">
          <mxGeometry x="10" y="130" width="100" height="20" as="geometry" />
        </mxCell>
        <mxCell id="aBV4YAuCvy3yFw8Tclj8-8" value="80" style="rounded=0;whiteSpace=wrap;html=1;fontSize=12;strokeColor=none;fillColor=#7EA6E0;textDirection=vertical-lr;" parent="2GmPpYBT71CByKpXUauW-2" vertex="1">
          <mxGeometry x="120" y="10" width="20" height="50" as="geometry" />
        </mxCell>
        <mxCell id="2GmPpYBT71CByKpXUauW-8" value="" style="group" parent="1" vertex="1" connectable="0">
          <mxGeometry x="280" y="-640" width="140" height="135.45" as="geometry" />
        </mxCell>
        <mxCell id="2GmPpYBT71CByKpXUauW-5" value="Service&lt;div&gt;ClusterIP&lt;/div&gt;" style="rounded=0;whiteSpace=wrap;html=1;align=center;verticalAlign=middle;fontSize=20;fontStyle=1;fillColor=#E6D0DE;strokeColor=none;gradientColor=#CDA2BE;" parent="2GmPpYBT71CByKpXUauW-8" vertex="1">
          <mxGeometry width="120" height="120" as="geometry" />
        </mxCell>
        <mxCell id="2GmPpYBT71CByKpXUauW-6" value="255.255.255.255" style="rounded=0;whiteSpace=wrap;html=1;fontSize=12;strokeColor=none;fillColor=#D4E1F5;fontColor=#000000;" parent="2GmPpYBT71CByKpXUauW-8" vertex="1">
          <mxGeometry x="10" y="120" width="100" height="15.45" as="geometry" />
        </mxCell>
        <mxCell id="2GmPpYBT71CByKpXUauW-7" value="25252" style="rounded=0;whiteSpace=wrap;html=1;fontSize=12;strokeColor=none;fillColor=#7EA6E0;textDirection=vertical-lr;" parent="2GmPpYBT71CByKpXUauW-8" vertex="1">
          <mxGeometry x="120" y="10.00181818181818" width="20.000000000000004" height="38.63636363636363" as="geometry" />
        </mxCell>
        <mxCell id="Te3M9jnvxv5dOvb-oejs-2" value="" style="group" parent="1" vertex="1" connectable="0">
          <mxGeometry x="40" y="-440" width="190" height="220" as="geometry" />
        </mxCell>
        <mxCell id="aBV4YAuCvy3yFw8Tclj8-10" value="" style="rounded=0;whiteSpace=wrap;html=1;align=left;verticalAlign=bottom;fontSize=20;fontStyle=1;fillColor=#D5E8D4;strokeColor=none;gradientColor=#B9E0A5;container=0;" parent="Te3M9jnvxv5dOvb-oejs-2" vertex="1">
          <mxGeometry width="170" height="200" as="geometry" />
        </mxCell>
        <mxCell id="aBV4YAuCvy3yFw8Tclj8-11" value="&lt;div&gt;255.255.255.255&lt;/div&gt;" style="rounded=0;whiteSpace=wrap;html=1;fontSize=12;strokeColor=none;fillColor=#D4E1F5;fontColor=#000000;container=0;" parent="Te3M9jnvxv5dOvb-oejs-2" vertex="1">
          <mxGeometry x="20" y="200" width="130" height="20" as="geometry" />
        </mxCell>
        <mxCell id="aBV4YAuCvy3yFw8Tclj8-12" value="25252" style="rounded=0;whiteSpace=wrap;html=1;fontSize=12;strokeColor=none;fillColor=#7EA6E0;textDirection=vertical-lr;container=0;" parent="Te3M9jnvxv5dOvb-oejs-2" vertex="1">
          <mxGeometry x="170" y="30" width="20" height="50" as="geometry" />
        </mxCell>
        <mxCell id="Te3M9jnvxv5dOvb-oejs-1" value="Node-01" style="text;html=1;align=left;verticalAlign=bottom;whiteSpace=wrap;rounded=0;fontStyle=1;fontSize=20;container=0;" parent="Te3M9jnvxv5dOvb-oejs-2" vertex="1">
          <mxGeometry y="170" width="110" height="30" as="geometry" />
        </mxCell>
        <mxCell id="Te3M9jnvxv5dOvb-oejs-5" value="" style="group;align=left;verticalAlign=middle;" parent="1" vertex="1" connectable="0">
          <mxGeometry x="80" y="80" width="520" height="520" as="geometry" />
        </mxCell>
        <mxCell id="Te3M9jnvxv5dOvb-oejs-6" value="" style="rounded=0;whiteSpace=wrap;html=1;align=left;verticalAlign=bottom;fontSize=20;fontStyle=1;fillColor=#D5E8D4;strokeColor=none;gradientColor=#B9E0A5;container=0;" parent="Te3M9jnvxv5dOvb-oejs-5" vertex="1">
          <mxGeometry width="170" height="200" as="geometry" />
        </mxCell>
        <mxCell id="Te3M9jnvxv5dOvb-oejs-7" value="&lt;div&gt;255.255.255.255&lt;/div&gt;" style="rounded=0;whiteSpace=wrap;html=1;fontSize=12;strokeColor=none;fillColor=#D4E1F5;fontColor=#000000;container=0;" parent="Te3M9jnvxv5dOvb-oejs-5" vertex="1">
          <mxGeometry x="20" y="200" width="130" height="20" as="geometry" />
        </mxCell>
        <mxCell id="Te3M9jnvxv5dOvb-oejs-9" value="Node-01" style="text;html=1;align=left;verticalAlign=bottom;whiteSpace=wrap;rounded=0;fontStyle=1;fontSize=20;container=0;" parent="Te3M9jnvxv5dOvb-oejs-5" vertex="1">
          <mxGeometry y="170" width="110" height="30" as="geometry" />
        </mxCell>
        <mxCell id="Te3M9jnvxv5dOvb-oejs-10" value="" style="group;spacingLeft=4;" parent="Te3M9jnvxv5dOvb-oejs-5" vertex="1" connectable="0">
          <mxGeometry x="10" y="10" width="140" height="150" as="geometry" />
        </mxCell>
        <mxCell id="Te3M9jnvxv5dOvb-oejs-11" value="" style="rounded=0;whiteSpace=wrap;html=1;fillColor=#FFF2CC;strokeColor=none;shadow=1;textShadow=1;align=center;verticalAlign=middle;fontStyle=1;fontSize=20;fontColor=#333333;gradientColor=#FFE599;shadowBlur=2;shadowOffsetX=0;shadowOpacity=50;shadowOffsetY=0;" parent="Te3M9jnvxv5dOvb-oejs-10" vertex="1">
          <mxGeometry width="120" height="130" as="geometry" />
        </mxCell>
        <mxCell id="Te3M9jnvxv5dOvb-oejs-12" value="POD" style="text;html=1;align=left;verticalAlign=top;whiteSpace=wrap;rounded=0;fontStyle=1;fontSize=20;spacing=0;spacingLeft=2;" parent="Te3M9jnvxv5dOvb-oejs-10" vertex="1">
          <mxGeometry width="50" height="30" as="geometry" />
        </mxCell>
        <mxCell id="Te3M9jnvxv5dOvb-oejs-13" value="nginx" style="html=1;whiteSpace=wrap;shape=isoCube2;backgroundOutline=1;isoAngle=15;gradientColor=none;strokeColor=#E6E6E6;fontSize=8;verticalAlign=top;fontStyle=0;fillColor=#FFCE9F;" parent="Te3M9jnvxv5dOvb-oejs-10" vertex="1">
          <mxGeometry x="40" y="30" width="40" height="40" as="geometry" />
        </mxCell>
        <mxCell id="Te3M9jnvxv5dOvb-oejs-14" value="netshoot" style="html=1;whiteSpace=wrap;shape=isoCube2;backgroundOutline=1;isoAngle=15;strokeColor=#E6E6E6;fontSize=8;verticalAlign=top;fillColor=#FFCE9F;" parent="Te3M9jnvxv5dOvb-oejs-10" vertex="1">
          <mxGeometry x="40" y="70" width="40" height="40" as="geometry" />
        </mxCell>
        <mxCell id="Te3M9jnvxv5dOvb-oejs-15" value="255.255.255.255" style="rounded=0;whiteSpace=wrap;html=1;fontSize=12;strokeColor=none;fillColor=#D4E1F5;fontColor=#000000;" parent="Te3M9jnvxv5dOvb-oejs-10" vertex="1">
          <mxGeometry x="10" y="130" width="100" height="20" as="geometry" />
        </mxCell>
        <mxCell id="Te3M9jnvxv5dOvb-oejs-16" value="80" style="rounded=0;whiteSpace=wrap;html=1;fontSize=12;strokeColor=none;fillColor=#7EA6E0;textDirection=vertical-lr;" parent="Te3M9jnvxv5dOvb-oejs-10" vertex="1">
          <mxGeometry x="120" y="10" width="20" height="50" as="geometry" />
        </mxCell>
        <mxCell id="Te3M9jnvxv5dOvb-oejs-17" value="" style="group" parent="1" vertex="1" connectable="0">
          <mxGeometry x="400" y="240" width="140" height="135.45" as="geometry" />
        </mxCell>
        <mxCell id="Te3M9jnvxv5dOvb-oejs-18" value="ClusterIP&lt;div&gt;Service&lt;/div&gt;" style="rounded=0;whiteSpace=wrap;html=1;align=center;verticalAlign=middle;fontSize=20;fontStyle=1;fillColor=#E6D0DE;strokeColor=none;gradientColor=#CDA2BE;" parent="Te3M9jnvxv5dOvb-oejs-17" vertex="1">
          <mxGeometry width="120" height="120" as="geometry" />
        </mxCell>
        <mxCell id="Te3M9jnvxv5dOvb-oejs-19" value="10.110.1.81" style="rounded=0;whiteSpace=wrap;html=1;fontSize=12;strokeColor=none;fillColor=#D4E1F5;fontColor=#000000;" parent="Te3M9jnvxv5dOvb-oejs-17" vertex="1">
          <mxGeometry x="10" y="120" width="100" height="15.45" as="geometry" />
        </mxCell>
        <mxCell id="Te3M9jnvxv5dOvb-oejs-20" value="8080" style="rounded=0;whiteSpace=wrap;html=1;fontSize=12;strokeColor=none;fillColor=#7EA6E0;textDirection=vertical-lr;" parent="Te3M9jnvxv5dOvb-oejs-17" vertex="1">
          <mxGeometry x="120" y="10.00181818181818" width="20.000000000000004" height="38.63636363636363" as="geometry" />
        </mxCell>
        <mxCell id="Te3M9jnvxv5dOvb-oejs-23" value="" style="group" parent="1" vertex="1" connectable="0">
          <mxGeometry x="560" y="-640" width="120" height="135.45" as="geometry" />
        </mxCell>
        <mxCell id="Te3M9jnvxv5dOvb-oejs-3" value="Load&lt;div&gt;Balancer&lt;/div&gt;" style="rounded=0;whiteSpace=wrap;html=1;fontSize=20;fontStyle=1;gradientColor=#F19C99;fillColor=#F8CECC;strokeColor=none;" parent="Te3M9jnvxv5dOvb-oejs-23" vertex="1">
          <mxGeometry width="120" height="120" as="geometry" />
        </mxCell>
        <mxCell id="Te3M9jnvxv5dOvb-oejs-22" value="255.255.255.255" style="rounded=0;whiteSpace=wrap;html=1;fontSize=12;strokeColor=none;fillColor=#D4E1F5;fontColor=#000000;" parent="Te3M9jnvxv5dOvb-oejs-23" vertex="1">
          <mxGeometry x="10" y="120" width="100" height="15.45" as="geometry" />
        </mxCell>
        <mxCell id="Te3M9jnvxv5dOvb-oejs-27" value="" style="group" parent="1" vertex="1" connectable="0">
          <mxGeometry x="80" y="320" width="190" height="220" as="geometry" />
        </mxCell>
        <mxCell id="Te3M9jnvxv5dOvb-oejs-28" value="" style="rounded=0;whiteSpace=wrap;html=1;align=left;verticalAlign=bottom;fontSize=20;fontStyle=1;fillColor=#D5E8D4;strokeColor=none;gradientColor=#B9E0A5;container=0;" parent="Te3M9jnvxv5dOvb-oejs-27" vertex="1">
          <mxGeometry width="170" height="200" as="geometry" />
        </mxCell>
        <mxCell id="Te3M9jnvxv5dOvb-oejs-29" value="&lt;div&gt;255.255.255.255&lt;/div&gt;" style="rounded=0;whiteSpace=wrap;html=1;fontSize=12;strokeColor=none;fillColor=#D4E1F5;fontColor=#000000;container=0;" parent="Te3M9jnvxv5dOvb-oejs-27" vertex="1">
          <mxGeometry x="20" y="200" width="130" height="20" as="geometry" />
        </mxCell>
        <mxCell id="Te3M9jnvxv5dOvb-oejs-30" value="Node-02" style="text;html=1;align=left;verticalAlign=bottom;whiteSpace=wrap;rounded=0;fontStyle=1;fontSize=20;container=0;" parent="Te3M9jnvxv5dOvb-oejs-27" vertex="1">
          <mxGeometry y="170" width="110" height="30" as="geometry" />
        </mxCell>
        <mxCell id="Te3M9jnvxv5dOvb-oejs-31" value="" style="group;spacingLeft=4;" parent="Te3M9jnvxv5dOvb-oejs-27" vertex="1" connectable="0">
          <mxGeometry x="10" y="10" width="140" height="150" as="geometry" />
        </mxCell>
        <mxCell id="Te3M9jnvxv5dOvb-oejs-32" value="" style="rounded=0;whiteSpace=wrap;html=1;fillColor=#FFF2CC;strokeColor=none;shadow=1;textShadow=1;align=center;verticalAlign=middle;fontStyle=1;fontSize=20;fontColor=#333333;gradientColor=#FFE599;shadowBlur=2;shadowOffsetX=0;shadowOpacity=50;shadowOffsetY=0;" parent="Te3M9jnvxv5dOvb-oejs-31" vertex="1">
          <mxGeometry width="120" height="130" as="geometry" />
        </mxCell>
        <mxCell id="Te3M9jnvxv5dOvb-oejs-33" value="POD" style="text;html=1;align=left;verticalAlign=top;whiteSpace=wrap;rounded=0;fontStyle=1;fontSize=20;spacing=0;spacingLeft=2;" parent="Te3M9jnvxv5dOvb-oejs-31" vertex="1">
          <mxGeometry width="50" height="30" as="geometry" />
        </mxCell>
        <mxCell id="Te3M9jnvxv5dOvb-oejs-34" value="nginx" style="html=1;whiteSpace=wrap;shape=isoCube2;backgroundOutline=1;isoAngle=15;gradientColor=none;strokeColor=#E6E6E6;fontSize=8;verticalAlign=top;fontStyle=0;fillColor=#FFCE9F;" parent="Te3M9jnvxv5dOvb-oejs-31" vertex="1">
          <mxGeometry x="40" y="30" width="40" height="40" as="geometry" />
        </mxCell>
        <mxCell id="Te3M9jnvxv5dOvb-oejs-35" value="netshoot" style="html=1;whiteSpace=wrap;shape=isoCube2;backgroundOutline=1;isoAngle=15;strokeColor=#E6E6E6;fontSize=8;verticalAlign=top;fillColor=#FFCE9F;" parent="Te3M9jnvxv5dOvb-oejs-31" vertex="1">
          <mxGeometry x="40" y="70" width="40" height="40" as="geometry" />
        </mxCell>
        <mxCell id="Te3M9jnvxv5dOvb-oejs-36" value="255.255.255.255" style="rounded=0;whiteSpace=wrap;html=1;fontSize=12;strokeColor=none;fillColor=#D4E1F5;fontColor=#000000;" parent="Te3M9jnvxv5dOvb-oejs-31" vertex="1">
          <mxGeometry x="10" y="130" width="100" height="20" as="geometry" />
        </mxCell>
        <mxCell id="Te3M9jnvxv5dOvb-oejs-37" value="80" style="rounded=0;whiteSpace=wrap;html=1;fontSize=12;strokeColor=none;fillColor=#7EA6E0;textDirection=vertical-lr;" parent="Te3M9jnvxv5dOvb-oejs-31" vertex="1">
          <mxGeometry x="120" y="10" width="20" height="50" as="geometry" />
        </mxCell>
        <mxCell id="Te3M9jnvxv5dOvb-oejs-38" value="" style="shape=flexArrow;endArrow=classic;html=1;rounded=0;exitX=0;exitY=0.5;exitDx=0;exitDy=0;width=5.070422535211268;endSize=3.985915492957747;endWidth=6.740726046419361;sourcePerimeterSpacing=0;fillColor=#660000;strokeColor=none;" parent="1" source="Te3M9jnvxv5dOvb-oejs-18" edge="1">
          <mxGeometry width="50" height="50" relative="1" as="geometry">
            <mxPoint x="240" y="240" as="sourcePoint" />
            <mxPoint x="230" y="130" as="targetPoint" />
          </mxGeometry>
        </mxCell>
        <mxCell id="Te3M9jnvxv5dOvb-oejs-39" value="" style="shape=flexArrow;endArrow=classic;html=1;rounded=0;exitX=0;exitY=0.5;exitDx=0;exitDy=0;width=5.070422535211268;endSize=3.985915492957747;endWidth=6.740726046419361;sourcePerimeterSpacing=0;strokeColor=none;fillColor=#660000;" parent="1" source="Te3M9jnvxv5dOvb-oejs-18" edge="1">
          <mxGeometry width="50" height="50" relative="1" as="geometry">
            <mxPoint x="410" y="348" as="sourcePoint" />
            <mxPoint x="230" y="370" as="targetPoint" />
          </mxGeometry>
        </mxCell>
      </root>
    </mxGraphModel>
  </diagram>
</mxfile>
